# xmcd
#
# Track frame offsets: 
#        150
#        17961
#        32566
#        50045
#        67222
#        84517
#        100761
#        117110
#        132874
#        148353
#        162167
#        179515
#        196075
#        212706
#        229240
#        244896
#        261673
#        278385
#
# Disc length: 3924 seconds
#
# Revision: 5
# Processed by: cddbd v1.5.2PL0 Copyright (c) Steve Scherf et al.
# Submitted via: ExactAudioCopy v0.99pb4
#
DISCID=0e0f5212
DTITLE=Various Artist - 20004 PO Country Radio
DYEAR=2004
DGENRE=Country
TTITLE0=Toby Keith - Whiskey Girl
TTITLE1=Tracy Byrd - How'd I Wind Up In Jamaica
TTITLE2=Lonestar - Let's Be Us Again
TTITLE3=Josh Gracin - I Want To Live
TTITLE4=Brad Paisley f Alison Krauss - Whiskey Lullaby
TTITLE5=Gretchen Wilson - Redneck Woman
TTITLE6=Vince Gill - In These Last Few Days
TTITLE7=Lane Turner - Always Wanting More (Breathless)
TTITLE8=Rodney Atkins - Someone To Share It With
TTITLE9=Pinmonkey - Let's Kill Saturday Night
TTITLE10=James Otto - Sunday Morning And Saturday Night
TTITLE11=Rachel Proctor - Me And Emily
TTITLE12=Jimmy Wayne - You Are
TTITLE13=Blake Shelton - When Somebody Knows You That Well
TTITLE14=Donovan Chapman - Panama City
TTITLE15=Chely Wright - Back Of The Bottom Drawer
TTITLE16=Gibson Brothers - Long Way Back Home
TTITLE17=The Great Divide - Freedom
EXTD=
EXTT0=
EXTT1=
EXTT2=
EXTT3=
EXTT4=
EXTT5=
EXTT6=
EXTT7=
EXTT8=
EXTT9=
EXTT10=
EXTT11=
EXTT12=
EXTT13=
EXTT14=
EXTT15=
EXTT16=
EXTT17=
PLAYORDER=
